name D:\school\WTK\thesis\model\3dpredictsim\Results\MidTarsalJoint\Fal_s1_bCst_PF_Natali2010_ls150_MT_k400_MTP_T5_ig24.mot
datacolumns 128
datarows 4
range 0.00000000 0.03403565
endheader
time	pelvis_tilt	pelvis_list	pelvis_rotation	pelvis_tx	pelvis_ty	pelvis_tz	hip_flexion_l	hip_adduction_l	hip_rotation_l	hip_flexion_r	hip_adduction_r	hip_rotation_r	knee_angle_l	knee_angle_r	ankle_angle_l	ankle_angle_r	subtalar_angle_l	subtalar_angle_r	tmt_angle_l	tmt_angle_r	mtp_angle_l	mtp_angle_r	lumbar_extension	lumbar_bending	lumbar_rotation	arm_flex_l	arm_add_l	arm_rot_l	arm_flex_r	arm_add_r	arm_rot_r	elbow_flex_l	elbow_flex_r	pro_sup_l	pro_sup_r	glut_med1_l/activation	glut_med2_l/activation	glut_med3_l/activation	glut_min1_l/activation	glut_min2_l/activation	glut_min3_l/activation	semimem_l/activation	semiten_l/activation	bifemlh_l/activation	bifemsh_l/activation	sar_l/activation	add_long_l/activation	add_brev_l/activation	add_mag1_l/activation	add_mag2_l/activation	add_mag3_l/activation	tfl_l/activation	pect_l/activation	grac_l/activation	glut_max1_l/activation	glut_max2_l/activation	glut_max3_l/activation	iliacus_l/activation	psoas_l/activation	quad_fem_l/activation	gem_l/activation	peri_l/activation	rect_fem_l/activation	vas_med_l/activation	vas_int_l/activation	vas_lat_l/activation	med_gas_l/activation	lat_gas_l/activation	soleus_l/activation	tib_post_l/activation	flex_dig_l/activation	flex_hal_l/activation	tib_ant_l/activation	per_brev_l/activation	per_long_l/activation	per_tert_l/activation	ext_dig_l/activation	ext_hal_l/activation	ercspn_l/activation	intobl_l/activation	extobl_l/activation	glut_med1_r/activation	glut_med2_r/activation	glut_med3_r/activation	glut_min1_r/activation	glut_min2_r/activation	glut_min3_r/activation	semimem_r/activation	semiten_r/activation	bifemlh_r/activation	bifemsh_r/activation	sar_r/activation	add_long_r/activation	add_brev_r/activation	add_mag1_r/activation	add_mag2_r/activation	add_mag3_r/activation	tfl_r/activation	pect_r/activation	grac_r/activation	glut_max1_r/activation	glut_max2_r/activation	glut_max3_r/activation	iliacus_r/activation	psoas_r/activation	quad_fem_r/activation	gem_r/activation	peri_r/activation	rect_fem_r/activation	vas_med_r/activation	vas_int_r/activation	vas_lat_r/activation	med_gas_r/activation	lat_gas_r/activation	soleus_r/activation	tib_post_r/activation	flex_dig_r/activation	flex_hal_r/activation	tib_ant_r/activation	per_brev_r/activation	per_long_r/activation	per_tert_r/activation	ext_dig_r/activation	ext_hal_r/activation	ercspn_r/activation	intobl_r/activation	extobl_r/activation	
          0.00000000	         -2.93009375	         -2.06450627	          5.44836980	          0.00000000	          0.91974410	         -0.00201039	        -16.82532920	         -1.03833155	          6.73048531	         29.13397686	          3.32634856	         -2.87048765	         -8.51580805	        -11.33658202	         -2.30953151	          5.18422199	          9.37639412	         -3.17060582	          3.11318195	         -0.12417348	         16.13667393	          0.63932042	         -2.11481967	          0.33803525	         -2.00554208	          4.40301816	        -13.45743060	         15.61398675	         -5.47374271	        -13.45395748	          5.48298791	         36.26508916	         17.49569509	         86.51662706	         86.51662706	          0.25923013	          0.09995932	          0.06858767	          0.29081594	          0.19504319	          0.10225352	          0.05000097	          0.05000018	          0.05000013	          0.05642872	          0.10843732	          0.10037560	          0.09480218	          0.05000179	          0.05000268	          0.05000074	          0.30812733	          0.09870937	          0.05000147	          0.05000132	          0.05000080	          0.05000087	          0.37962692	          0.60833009	          0.05000020	          0.05000055	          0.05000029	          0.22871542	          0.05108075	          0.05012887	          0.06590309	          0.26553686	          0.36356899	          0.31089856	          0.26352747	          0.24797430	          0.32811216	          0.05000002	          0.05945389	          0.12220509	          0.05000014	          0.05000003	          0.05000015	          0.05000003	          0.05000028	          0.06559315	          0.05945433	          0.05945433	          0.05000012	          0.05945440	          0.05945438	          0.05945050	          0.14303870	          0.06407677	          0.19291676	          0.05000298	          0.05000018	          0.16147800	          0.33439069	          0.11096169	          0.20169771	          0.10481662	          0.05000014	          0.06087732	          0.13264863	          0.05000038	          0.05000031	          0.12467242	          0.05945450	          0.05016851	          0.34137474	          0.28219270	          0.12869873	          0.05001214	          0.13071875	          0.12869590	          0.11609761	          0.06604584	          0.06093959	          0.06104779	          0.05000003	          0.05000103	          0.05000029	          0.51871813	          0.25264896	          0.15934438	          0.18203028	          0.46445265	          0.22976604	          0.05744836	          0.10997930	          0.09702463	
          0.01134522	         -2.92642664	         -2.15061544	          5.70402992	          0.01725219	          0.91889799	         -0.00180219	        -16.64918469	         -1.33240692	          6.53772684	         28.46158618	          3.70956942	         -2.63893655	        -10.50017854	        -11.63978686	         -2.97704477	          4.51439699	         10.37358033	         -3.55018733	          2.33846422	         -0.18281521	         17.79680958	          0.63240989	         -1.90957968	          0.54515581	         -2.07707619	          4.07533407	        -13.46794493	         15.92521573	         -6.36472895	        -13.45225813	          5.20729916	         37.41854021	         17.14372371	         86.51662706	         86.51662706	          0.21800776	          0.08406396	          0.05768112	          0.24457088	          0.16402775	          0.08599335	          0.05000313	          0.05000082	          0.05000163	          0.05000008	          0.09119392	          0.19474710	          0.08674130	          0.07072528	          0.05945660	          0.05945530	          0.25912948	          0.09097478	          0.05939728	          0.05001555	          0.05033524	          0.05945481	          0.31925923	          0.56197851	          0.05945471	          0.05945570	          0.05636646	          0.19234545	          0.13259596	          0.14695208	          0.12731814	          0.22331157	          0.30575477	          0.26145991	          0.22162178	          0.20854200	          0.27593643	          0.05000001	          0.05000011	          0.13496017	          0.05000008	          0.05000003	          0.05000010	          0.06460423	          0.07069634	          0.06005554	          0.05000001	          0.05000004	          0.11846608	          0.05000006	          0.05000006	          0.05000005	          0.12029305	          0.05388745	          0.16223945	          0.05000014	          0.05945931	          0.13580009	          0.30300151	          0.35316407	          0.22637031	          0.10975955	          0.05000034	          0.07995058	          0.15196924	          0.06553153	          0.08292685	          0.12918352	          0.05000021	          0.05945456	          0.54721505	          0.23731885	          0.10823330	          0.05945503	          0.15408264	          0.15581011	          0.13369092	          0.06512615	          0.06627983	          0.05420624	          0.05825344	          0.05000164	          0.05786027	          0.50479240	          0.30506711	          0.20117687	          0.15308420	          0.43390941	          0.19322903	          0.05000000	          0.09249055	          0.08159592	
          0.02269043	         -2.91797616	         -2.24249854	          5.93009171	          0.03479767	          0.91803755	         -0.00161772	        -16.40314041	         -1.62577181	          6.33183707	         27.64038738	          3.98464914	         -2.37463797	        -12.59045392	        -12.07269086	         -3.80263963	          4.00432236	         11.31753223	         -3.95023710	          1.47018761	         -0.26894943	         19.45346421	          0.62037986	         -1.68340643	          0.76441894	         -2.13690179	          3.66884841	        -13.47628459	         16.15676283	         -7.27467865	        -13.46034365	          5.00538310	         38.56149909	         16.82080336	         86.51662706	         86.51662706	          0.31987264	          0.07069628	          0.05000019	          0.32534374	          0.13794446	          0.07231887	          0.05000193	          0.05000022	          0.05000016	          0.05000090	          0.07947790	          0.16377875	          0.07294791	          0.05947872	          0.05000213	          0.05000092	          0.27147825	          0.07650932	          0.05000123	          0.05000216	          0.05000097	          0.05000076	          0.26849115	          0.52358737	          0.05000039	          0.05000145	          0.05000030	          0.16175896	          0.11151079	          0.12358402	          0.10707224	          0.18780088	          0.25713409	          0.21988292	          0.18637983	          0.17538004	          0.23205749	          0.05813173	          0.09228184	          0.15906448	          0.05000041	          0.09644192	          0.05000076	          0.06080798	          0.05945431	          0.05050561	          0.25574832	          0.26276270	          0.33037430	          0.42319764	          0.25516357	          0.22563156	          0.10709307	          0.05809218	          0.13726524	          0.07319275	          0.05000470	          0.11420538	          0.25481869	          0.29700451	          0.19037343	          0.12306861	          0.05000042	          0.06723768	          0.12780375	          0.13809409	          0.06974025	          0.10864122	          0.05000354	          0.05000048	          0.46019772	          0.19958084	          0.23480020	          0.05000060	          0.12958075	          0.13103354	          0.11243168	          0.05476994	          0.05574019	          0.05000097	          0.05000010	          0.05000046	          0.05000051	          0.56827062	          0.32511511	          0.16918613	          0.39056635	          0.50492832	          0.18681342	          0.06629478	          0.11276919	          0.06862066	
          0.03403565	         -2.90680629	         -2.32789872	          6.12149732	          0.05240825	          0.91718923	         -0.00140843	        -16.05068488	         -1.90592567	          6.13787101	         26.76335902	          4.23178603	         -2.10784395	        -14.83123420	        -12.46584558	         -4.75562145	          3.63616319	         12.21714626	         -4.35712330	          0.53882993	         -0.23872154	         20.95810473	          0.64144843	         -1.46036197	          0.98209770	         -2.18590014	          3.22495477	        -13.49210437	         16.33811419	         -8.15372014	        -13.47029645	          4.88153893	         39.66934120	         16.49969366	         86.51662706	         86.51662706	          0.26900704	          0.05945430	          0.05000010	          0.27360815	          0.11600880	          0.06081887	          0.05000096	          0.05000010	          0.05000011	          0.05000006	          0.06683959	          0.15528444	          0.17600146	          0.05002225	          0.05004439	          0.09102918	          0.22830848	          0.06434495	          0.05000044	          0.05000259	          0.05000183	          0.05000160	          0.22579609	          0.46169110	          0.05000018	          0.05000058	          0.05000014	          0.13603629	          0.11718432	          0.10808182	          0.09996033	          0.15793705	          0.21624500	          0.18491745	          0.15674200	          0.14749145	          0.19515611	          0.13216243	          0.14561547	          0.14247859	          0.05000331	          0.17588654	          0.08228731	          0.08435871	          0.05000001	          0.05000002	          0.36073396	          0.36070605	          0.38001518	          0.35590160	          0.21459099	          0.23642317	          0.09673218	          0.09413513	          0.11726855	          0.06155409	          0.05000049	          0.09604463	          0.21429783	          0.24977554	          0.16890488	          0.16076099	          0.05000025	          0.05654616	          0.10748125	          0.23061671	          0.16997305	          0.15154746	          0.05000008	          0.05000009	          0.38701776	          0.16784384	          0.19746308	          0.05000005	          0.15383324	          0.16488093	          0.12427711	          0.05000003	          0.05000005	          0.05000001	          0.05000002	          0.05000010	          0.05000010	          0.63406095	          0.27511038	          0.14511136	          0.56664109	          0.54115243	          0.30863525	          0.08403139	          0.09483680	          0.05770871	
